<svg width="520" height="108" viewBox="0 0 520 108" fill="none" xmlns="http://www.w3.org/2000/svg">
<path d="M179.3 35.2399L173.63 40.7599C172.11 39.5499 170.58 38.6599 169.06 38.0799C167.54 37.4999 165.88 37.2099 164.09 37.2099C160.15 37.2099 156.92 38.5999 154.4 41.3899C151.88 44.1799 150.07 47.5999 148.96 51.6799C147.86 55.7499 147.31 59.8399 147.31 63.9399C147.31 68.6199 148.26 72.0699 150.15 74.2999C152.04 76.5299 154.64 77.6499 157.95 77.6499C160.1 77.6499 162.07 77.2599 163.86 76.4699C165.65 75.6799 167.56 74.5499 169.61 73.0799L173.79 79.5399C171.58 81.4299 169.05 82.9799 166.18 84.1899C163.32 85.3999 160.15 85.9999 156.68 85.9999C150.53 85.9999 145.65 84.0599 142.02 80.1699C138.39 76.2799 136.58 70.7599 136.58 63.6199C136.58 58.2599 137.53 52.9399 139.42 47.6599C141.31 42.3799 144.31 37.9799 148.41 34.4599C152.51 30.9399 157.63 29.1799 163.78 29.1799C169.93 29.1799 175.26 31.1999 179.31 35.2499L179.3 35.2399Z" fill="#410092"/>
<path d="M181.46 81.3499C178.54 78.2499 177.09 73.9399 177.09 68.4199C177.09 64.3199 177.84 60.2499 179.34 56.1999C180.84 52.1499 183.27 48.7699 186.63 46.0299C189.99 43.2999 194.3 41.9299 199.56 41.9299C204.82 41.9299 209.06 43.4899 211.97 46.6199C214.89 49.7499 216.34 54.0199 216.34 59.4299C216.34 63.5299 215.6 67.5999 214.13 71.6499C212.66 75.6999 210.24 79.0999 206.88 81.8599C203.52 84.6199 199.18 85.9999 193.88 85.9999C188.58 85.9999 184.38 84.4499 181.47 81.3499H181.46ZM201.36 75.0799C203.09 72.8999 204.3 70.2899 204.99 67.2399C205.67 64.1899 206.01 61.2199 206.01 58.3299C206.01 52.4999 203.67 49.5799 199 49.5799C196.11 49.5799 193.8 50.6399 192.06 52.7699C190.33 54.8999 189.1 57.4599 188.39 60.4499C187.68 63.4399 187.33 66.3599 187.33 69.1999C187.33 75.2999 189.69 78.3399 194.42 78.3399C197.31 78.3399 199.62 77.2499 201.36 75.0699V75.0799Z" fill="#410092"/>
<path d="M256.65 44.6599C258.36 46.4699 259.21 48.9799 259.21 52.1899C259.21 53.0299 259.13 53.9799 258.97 55.0299L254.79 84.8199H244.86L248.88 56.5199C248.98 55.5699 249.04 54.9199 249.04 54.5499C249.04 52.9699 248.72 51.8599 248.09 51.1999C247.46 50.5399 246.59 50.2099 245.49 50.2099C241.92 50.2099 238.26 53.7799 234.53 60.9299L231.14 84.8099H221.21L227.04 43.1199H235.63L235.24 50.8399C239.34 44.8999 244.12 41.9299 249.58 41.9299C252.58 41.9299 254.93 42.8399 256.63 44.6499L256.65 44.6599Z" fill="#410092"/>
<path d="M277.58 72.29C277.47 73.34 277.42 74 277.42 74.26C277.42 75.52 277.68 76.43 278.21 76.98C278.73 77.53 279.58 77.81 280.73 77.81C282.2 77.81 283.99 77.31 286.09 76.31L288.93 83.01C285.72 85.01 282.23 86.01 278.45 86.01C274.93 86.01 272.21 85.08 270.29 83.21C268.37 81.35 267.41 78.71 267.41 75.29C267.41 74.34 267.49 73.32 267.65 72.22L270.72 50.39H264.26L265.28 43.14H272.14L272.51 41.79C273.86 36.89 278.05 33.31 283.09 32.74L281.67 43.14H291.29L289.16 50.39H280.65L277.58 72.3V72.29Z" fill="#410092"/>
<path d="M308.55 43.12L302.72 84.81H292.79L298.62 43.12H308.55ZM301.07 32.68C300.02 31.66 299.49 30.35 299.49 28.78C299.49 26.84 300.15 25.22 301.46 23.93C302.77 22.64 304.4 22 306.35 22C308.03 22 309.4 22.51 310.45 23.54C311.5 24.56 312.03 25.89 312.03 27.52C312.03 29.41 311.37 31 310.06 32.29C308.75 33.58 307.12 34.22 305.17 34.22C303.49 34.22 302.12 33.71 301.07 32.68Z" fill="#410092"/>
<path d="M348.87 44.6599C350.58 46.4699 351.43 48.9799 351.43 52.1899C351.43 53.0299 351.35 53.9799 351.19 55.0299L347.01 84.8199H337.08L341.1 56.5199C341.2 55.5699 341.26 54.9199 341.26 54.5499C341.26 52.9699 340.94 51.8599 340.31 51.1999C339.68 50.5399 338.81 50.2099 337.71 50.2099C334.14 50.2099 330.48 53.7799 326.75 60.9299L323.36 84.8099H313.43L319.26 43.1199H327.85L327.46 50.8399C331.56 44.8999 336.34 41.9299 341.8 41.9299C344.79 41.9299 347.15 42.8399 348.85 44.6499L348.87 44.6599Z" fill="#410092"/>
<path d="M387.06 64.6399C382.17 67.0599 375.63 68.6899 367.43 69.5299C367.64 75.3099 370.35 78.1999 375.55 78.1999C377.44 78.1999 379.25 77.8999 380.99 77.2899C381.01 77.2899 381.02 77.2799 381.04 77.2699C384.46 76.0699 388.25 77.3199 390.15 80.4099L390.29 80.6399C385.25 84.2099 379.97 85.9999 374.45 85.9999C368.93 85.9999 364.62 84.4599 361.68 81.3899C358.74 78.3199 357.27 74.0699 357.27 68.6599C357.27 64.4599 358.05 60.3199 359.6 56.2499C361.15 52.1799 363.62 48.7799 367.01 46.0399C370.4 43.3099 374.72 41.9399 379.98 41.9399C383.03 41.9399 385.64 42.4399 387.82 43.4399C390 44.4399 391.64 45.7799 392.75 47.4599C393.85 49.1399 394.4 50.9799 394.4 52.9799C394.4 58.3399 391.96 62.2299 387.07 64.6399H387.06ZM380.2 59.7099C382.83 58.1599 384.14 56.0399 384.14 53.3699C384.14 52.2699 383.77 51.2799 383.04 50.4099C382.3 49.5399 381.1 49.1099 379.41 49.1099C376.1 49.1099 373.51 50.4199 371.65 53.0499C369.78 55.6799 368.54 58.9399 367.91 62.8199C373.48 62.2999 377.58 61.2599 380.21 59.7099H380.2Z" fill="#410092"/>
<path d="M432.89 44.6599C434.6 46.4699 435.45 48.9799 435.45 52.1899C435.45 53.0299 435.37 53.9799 435.21 55.0299L431.03 84.8199H421.1L425.12 56.5199C425.22 55.5699 425.28 54.9199 425.28 54.5499C425.28 52.9699 424.96 51.8599 424.33 51.1999C423.7 50.5399 422.83 50.2099 421.73 50.2099C418.16 50.2099 414.5 53.7799 410.77 60.9299L407.38 84.8099H397.45L403.28 43.1199H411.87L411.48 50.8399C415.58 44.8999 420.36 41.9299 425.82 41.9299C428.81 41.9299 431.17 42.8399 432.87 44.6499L432.89 44.6599Z" fill="#410092"/>
<path d="M453.81 72.29C453.7 73.34 453.65 74 453.65 74.26C453.65 75.52 453.91 76.43 454.44 76.98C454.96 77.53 455.81 77.81 456.96 77.81C458.43 77.81 460.22 77.31 462.32 76.31L465.16 83.01C461.95 85.01 458.46 86.01 454.68 86.01C451.16 86.01 448.44 85.08 446.52 83.21C444.6 81.35 443.64 78.71 443.64 75.29C443.64 74.34 443.72 73.32 443.88 72.22L446.95 50.39H440.49L441.51 43.14H448.37L448.74 41.79C450.09 36.89 454.28 33.31 459.32 32.74L457.9 43.14H467.52L465.39 50.39H456.88L453.81 72.3V72.29Z" fill="#410092"/>
<path d="M501.58 47.2199L497.01 52.8199C493.86 50.5599 490.52 49.4299 487 49.4299C484.84 49.4299 483.18 49.8199 481.99 50.6099C480.81 51.3999 480.22 52.4799 480.22 53.8399C480.22 55.0999 480.77 56.0899 481.87 56.7999C482.97 57.5099 485.15 58.3899 488.41 59.4399C492.25 60.6499 495.08 62.2399 496.92 64.2099C498.76 66.1799 499.68 68.7699 499.68 71.9699C499.68 74.7599 498.93 77.2099 497.43 79.3399C495.93 81.4699 493.82 83.1099 491.08 84.2699C488.35 85.4299 485.17 85.9999 481.54 85.9999C477.91 85.9999 474.93 85.3899 472.12 84.1899C469.31 82.9799 466.98 81.4299 465.14 79.5399L470.34 74.0999C473.7 76.9899 477.51 78.4299 481.77 78.4299C484.4 78.4299 486.35 77.8899 487.64 76.8099C488.93 75.7299 489.57 74.4799 489.57 73.0699C489.57 71.9699 489.32 71.0599 488.82 70.3499C488.32 69.6399 487.49 69.0099 486.34 68.4599C485.18 67.9099 483.42 67.2399 481.06 66.4499C477.22 65.2399 474.45 63.6999 472.74 61.8399C471.03 59.9799 470.18 57.5699 470.18 54.6299C470.18 52.4199 470.82 50.3499 472.11 48.3999C473.4 46.4599 475.3 44.8899 477.82 43.7099C480.34 42.5299 483.39 41.9399 486.96 41.9399C492.63 41.9399 497.49 43.6999 501.54 47.2199H501.58Z" fill="#410092"/>
<path d="M88.68 24.3C80.8 16.01 71.32 12 58.98 12C35.78 12 16.98 30.8 16.98 54C16.98 77.2 34.92 95.11 57.36 95.96C40.72 95.12 27.48 81.35 27.48 64.5C27.48 47.65 41.58 33 58.98 33L60.06 33.03C65.43 33.3 70.27 35.59 73.83 39.15L88.68 24.3Z" fill="#0083FF"/>
<path d="M85.88 80.89C80.06 75.07 71.66 72.67 63.62 74.48C61.71 74.91 59.69 75.08 57.62 74.95C47.29 74.3 38.85 66 38.05 55.68C37.11 43.69 46.26 33.61 57.9 33.02C41 33.59 27.48 47.46 27.48 64.49C27.48 81.52 40.72 95.11 57.36 95.95C57.9 95.97 58.44 95.99 58.98 95.99C59.52 95.99 60.06 95.97 60.6 95.95C71.55 95.53 81.42 90.92 88.67 83.68L85.88 80.89Z" fill="url(#paint0_linear_1317_2)"/>
<path d="M98.6899 40.26C97.6599 39.23 95.9999 39.23 94.9799 40.26L90.1399 45.1L73.9199 44.76C73.2699 44.62 72.5999 44.8201 72.1299 45.2901L70.0899 47.3301L84.0499 51.19L70.0999 65.13C62.9199 72.31 51.2899 72.3 44.1099 65.13C37.1599 58.18 36.9399 47.0401 43.4599 39.8301C35.9199 48.0701 36.1299 60.87 44.1099 68.84C52.3099 77.04 65.6099 77.04 73.8099 68.84L87.7599 54.9001L91.6099 68.8601L93.6499 66.82C94.1199 66.35 94.3199 65.67 94.1799 65.03L93.8499 48.8101L98.6899 43.9701C99.7199 42.9401 99.7199 41.28 98.6899 40.26Z" fill="url(#paint1_linear_1317_2)"/>
<path d="M119.02 22V86" stroke="#B7B7B7" stroke-width="2" stroke-miterlimit="10" stroke-linecap="round"/>
<defs>
<linearGradient id="paint0_linear_1317_2" x1="27.48" y1="64.51" x2="88.67" y2="64.51" gradientUnits="userSpaceOnUse">
<stop stop-color="#410092"/>
<stop offset="1" stop-color="#FF0083"/>
</linearGradient>
<linearGradient id="paint1_linear_1317_2" x1="90.1999" y1="31.68" x2="50.8799" y2="71.01" gradientUnits="userSpaceOnUse">
<stop stop-color="#FF0083"/>
<stop offset="0.99" stop-color="#410092"/>
</linearGradient>
</defs>
</svg>
