<svg width="520" height="108" viewBox="0 0 520 108" fill="none" xmlns="http://www.w3.org/2000/svg">
<path d="M87.7 24.3C79.82 16.01 70.34 12 58 12C34.8 12 16 30.8 16 54C16 77.2 33.94 95.11 56.38 95.96C39.74 95.12 26.5 81.35 26.5 64.5C26.5 47.65 40.6 33 58 33L59.08 33.03C64.45 33.3 69.29 35.59 72.85 39.15L87.7 24.3Z" fill="#0083FF"/>
<path d="M84.9 80.89C79.08 75.07 70.68 72.67 62.64 74.48C60.73 74.91 58.71 75.08 56.64 74.95C46.31 74.3 37.87 66 37.07 55.68C36.13 43.69 45.28 33.61 56.92 33.02C40.02 33.59 26.5 47.46 26.5 64.49C26.5 81.52 39.74 95.11 56.38 95.95C56.92 95.97 57.46 95.99 58 95.99C58.54 95.99 59.08 95.97 59.62 95.95C70.57 95.53 80.44 90.92 87.69 83.68L84.9 80.89Z" fill="url(#paint0_linear_1337_9)"/>
<path d="M97.7099 40.26C96.6799 39.23 95.0199 39.23 93.9999 40.26L89.1599 45.1L72.9399 44.76C72.2899 44.62 71.6199 44.8201 71.1499 45.2901L69.1099 47.3301L83.0699 51.19L69.1199 65.13C61.9399 72.31 50.3099 72.3 43.1299 65.13C36.1799 58.18 35.9599 47.0401 42.4799 39.8301C34.9399 48.0701 35.1499 60.87 43.1299 68.84C51.3299 77.04 64.6299 77.04 72.8299 68.84L86.7799 54.9001L90.6299 68.8601L92.6699 66.82C93.1399 66.35 93.3399 65.67 93.1999 65.03L92.8699 48.8101L97.7099 43.9701C98.7399 42.9401 98.7399 41.28 97.7099 40.26Z" fill="url(#paint1_linear_1337_9)"/>
<path d="M118.482 21.995V85.995" stroke="#B7B7B7" stroke-opacity="0.5" stroke-width="2" stroke-miterlimit="10" stroke-linecap="round"/>
<path d="M181.202 35.23L175.532 40.75C174.012 39.54 172.482 38.65 170.962 38.07C169.442 37.49 167.782 37.2 165.992 37.2C162.052 37.2 158.822 38.59 156.302 41.38C153.782 44.17 151.972 47.59 150.862 51.67C149.762 55.74 149.212 59.83 149.212 63.93C149.212 68.61 150.162 72.06 152.052 74.29C153.942 76.52 156.542 77.64 159.852 77.64C162.002 77.64 163.972 77.25 165.762 76.46C167.552 75.67 169.462 74.54 171.512 73.07L175.692 79.53C173.482 81.42 170.952 82.97 168.082 84.18C165.222 85.39 162.052 85.99 158.582 85.99C152.432 85.99 147.552 84.05 143.922 80.16C140.292 76.27 138.482 70.75 138.482 63.61C138.482 58.25 139.432 52.93 141.322 47.65C143.212 42.37 146.212 37.97 150.312 34.45C154.412 30.93 159.532 29.17 165.682 29.17C171.832 29.17 177.162 31.19 181.212 35.24L181.202 35.23Z" fill="white"/>
<path d="M183.362 81.34C180.442 78.24 178.992 73.93 178.992 68.41C178.992 64.31 179.742 60.24 181.242 56.19C182.742 52.14 185.172 48.76 188.532 46.02C191.892 43.29 196.202 41.92 201.462 41.92C206.722 41.92 210.962 43.48 213.872 46.61C216.792 49.74 218.242 54.01 218.242 59.42C218.242 63.52 217.502 67.59 216.032 71.64C214.562 75.69 212.142 79.09 208.782 81.85C205.422 84.61 201.082 85.99 195.782 85.99C190.482 85.99 186.282 84.44 183.372 81.34H183.362ZM203.262 75.07C204.992 72.89 206.202 70.28 206.892 67.23C207.572 64.18 207.912 61.21 207.912 58.32C207.912 52.49 205.572 49.57 200.902 49.57C198.012 49.57 195.702 50.63 193.962 52.76C192.232 54.89 191.002 57.45 190.292 60.44C189.582 63.43 189.232 66.35 189.232 69.19C189.232 75.29 191.592 78.33 196.322 78.33C199.212 78.33 201.522 77.24 203.262 75.06V75.07Z" fill="white"/>
<path d="M258.552 44.65C260.262 46.46 261.112 48.97 261.112 52.18C261.112 53.02 261.032 53.97 260.872 55.02L256.692 84.81H246.762L250.782 56.51C250.882 55.56 250.942 54.91 250.942 54.54C250.942 52.96 250.622 51.85 249.992 51.19C249.362 50.53 248.492 50.2 247.392 50.2C243.822 50.2 240.162 53.77 236.432 60.92L233.042 84.8H223.112L228.942 43.11H237.532L237.142 50.83C241.242 44.89 246.022 41.92 251.482 41.92C254.482 41.92 256.832 42.83 258.532 44.64L258.552 44.65Z" fill="white"/>
<path d="M279.482 72.28C279.372 73.33 279.322 73.99 279.322 74.25C279.322 75.51 279.582 76.42 280.112 76.97C280.632 77.52 281.482 77.8 282.632 77.8C284.102 77.8 285.892 77.3 287.992 76.3L290.832 83C287.622 85 284.132 86 280.352 86C276.832 86 274.112 85.07 272.192 83.2C270.272 81.34 269.312 78.7 269.312 75.28C269.312 74.33 269.392 73.31 269.552 72.21L272.622 50.38H266.162L267.182 43.13H274.042L274.412 41.78C275.762 36.88 279.952 33.3 284.992 32.73L283.572 43.13H293.192L291.062 50.38H282.552L279.482 72.29V72.28Z" fill="white"/>
<path d="M310.452 43.11L304.622 84.8H294.692L300.522 43.11H310.452ZM302.972 32.67C301.922 31.65 301.392 30.34 301.392 28.77C301.392 26.83 302.052 25.21 303.362 23.92C304.672 22.63 306.302 21.99 308.252 21.99C309.932 21.99 311.302 22.5 312.352 23.53C313.402 24.55 313.932 25.88 313.932 27.51C313.932 29.4 313.272 30.99 311.962 32.28C310.652 33.57 309.022 34.21 307.072 34.21C305.392 34.21 304.022 33.7 302.972 32.67Z" fill="white"/>
<path d="M350.773 44.65C352.483 46.46 353.333 48.97 353.333 52.18C353.333 53.02 353.253 53.97 353.093 55.02L348.913 84.81H338.983L343.003 56.51C343.103 55.56 343.163 54.91 343.163 54.54C343.163 52.96 342.843 51.85 342.213 51.19C341.583 50.53 340.713 50.2 339.613 50.2C336.043 50.2 332.383 53.77 328.653 60.92L325.263 84.8H315.333L321.163 43.11H329.753L329.363 50.83C333.463 44.89 338.243 41.92 343.703 41.92C346.693 41.92 349.053 42.83 350.753 44.64L350.773 44.65Z" fill="white"/>
<path d="M388.962 64.6299C384.072 67.0499 377.532 68.6799 369.332 69.5199C369.542 75.2999 372.252 78.1899 377.452 78.1899C379.342 78.1899 381.152 77.8899 382.892 77.2799C382.912 77.2799 382.922 77.2699 382.942 77.2599C386.362 76.0599 390.152 77.3099 392.052 80.3999L392.192 80.6299C387.152 84.1999 381.872 85.9899 376.352 85.9899C370.832 85.9899 366.522 84.4499 363.582 81.3799C360.642 78.3099 359.172 74.0599 359.172 68.6499C359.172 64.4499 359.952 60.3099 361.502 56.2399C363.052 52.1699 365.522 48.7699 368.912 46.0299C372.302 43.2999 376.622 41.9299 381.882 41.9299C384.932 41.9299 387.542 42.4299 389.722 43.4299C391.902 44.4299 393.542 45.7699 394.652 47.4499C395.752 49.1299 396.302 50.9699 396.302 52.9699C396.302 58.3299 393.862 62.2199 388.972 64.6299H388.962ZM382.102 59.6999C384.732 58.1499 386.042 56.0299 386.042 53.3599C386.042 52.2599 385.672 51.2699 384.942 50.3999C384.202 49.5299 383.002 49.0999 381.312 49.0999C378.002 49.0999 375.412 50.4099 373.552 53.0399C371.682 55.6699 370.442 58.9299 369.812 62.8099C375.382 62.2899 379.482 61.2499 382.112 59.6999H382.102Z" fill="white"/>
<path d="M434.793 44.65C436.503 46.46 437.353 48.97 437.353 52.18C437.353 53.02 437.273 53.97 437.113 55.02L432.933 84.81H423.003L427.023 56.51C427.123 55.56 427.183 54.91 427.183 54.54C427.183 52.96 426.863 51.85 426.233 51.19C425.603 50.53 424.733 50.2 423.633 50.2C420.063 50.2 416.403 53.77 412.673 60.92L409.283 84.8H399.353L405.183 43.11H413.773L413.383 50.83C417.483 44.89 422.263 41.92 427.723 41.92C430.713 41.92 433.073 42.83 434.773 44.64L434.793 44.65Z" fill="white"/>
<path d="M455.712 72.28C455.602 73.33 455.552 73.99 455.552 74.25C455.552 75.51 455.812 76.42 456.342 76.97C456.862 77.52 457.712 77.8 458.862 77.8C460.332 77.8 462.122 77.3 464.222 76.3L467.062 83C463.852 85 460.362 86 456.582 86C453.062 86 450.342 85.07 448.422 83.2C446.502 81.34 445.542 78.7 445.542 75.28C445.542 74.33 445.622 73.31 445.782 72.21L448.852 50.38H442.392L443.412 43.13H450.272L450.642 41.78C451.992 36.88 456.182 33.3 461.222 32.73L459.802 43.13H469.422L467.292 50.38H458.782L455.712 72.29V72.28Z" fill="white"/>
<path d="M503.482 47.2099L498.912 52.8099C495.762 50.5499 492.422 49.4199 488.902 49.4199C486.742 49.4199 485.082 49.8099 483.892 50.5999C482.712 51.3899 482.122 52.4699 482.122 53.8299C482.122 55.0899 482.672 56.0799 483.772 56.7899C484.872 57.4999 487.052 58.3799 490.312 59.4299C494.152 60.6399 496.982 62.2299 498.822 64.1999C500.662 66.1699 501.582 68.7599 501.582 71.9599C501.582 74.7499 500.832 77.1999 499.332 79.3299C497.832 81.4599 495.722 83.0999 492.982 84.2599C490.252 85.4199 487.072 85.9899 483.442 85.9899C479.812 85.9899 476.832 85.3799 474.022 84.1799C471.212 82.9699 468.882 81.4199 467.042 79.5299L472.242 74.0899C475.602 76.9799 479.412 78.4199 483.672 78.4199C486.302 78.4199 488.252 77.8799 489.542 76.7999C490.832 75.7199 491.472 74.4699 491.472 73.0599C491.472 71.9599 491.222 71.0499 490.722 70.3399C490.222 69.6299 489.392 68.9999 488.242 68.4499C487.082 67.8999 485.322 67.2299 482.962 66.4399C479.122 65.2299 476.352 63.6899 474.642 61.8299C472.932 59.9699 472.082 57.5599 472.082 54.6199C472.082 52.4099 472.722 50.3399 474.012 48.3899C475.302 46.4499 477.202 44.8799 479.722 43.6999C482.242 42.5199 485.292 41.9299 488.862 41.9299C494.532 41.9299 499.392 43.6899 503.442 47.2099H503.482Z" fill="white"/>
<defs>
<linearGradient id="paint0_linear_1337_9" x1="26.5" y1="64.51" x2="87.69" y2="64.51" gradientUnits="userSpaceOnUse">
<stop stop-color="#410092"/>
<stop offset="1" stop-color="#FF0083"/>
</linearGradient>
<linearGradient id="paint1_linear_1337_9" x1="89.2199" y1="31.68" x2="49.8999" y2="71.01" gradientUnits="userSpaceOnUse">
<stop stop-color="#FF0083"/>
<stop offset="0.99" stop-color="#410092"/>
</linearGradient>
</defs>
</svg>
