<?xml version="1.0" encoding="UTF-8"?>
<svg id="Capa_1" data-name="Capa 1" xmlns="http://www.w3.org/2000/svg" viewBox="0 0 520 108">
  <defs>
    <style>
      .cls-1, .cls-2, .cls-3 {
        fill: none;
      }

      .cls-2 {
        opacity: .5;
        stroke: #fff;
      }

      .cls-2, .cls-3 {
        stroke-linecap: round;
        stroke-miterlimit: 10;
      }

      .cls-4 {
        fill: #ff0083;
      }

      .cls-5 {
        fill: #fff;
      }

      .cls-3 {
        stroke: #250053;
      }
    </style>
  </defs>
  <rect class="cls-1" width="520" height="108"/>
  <g>
    <g>
      <path class="cls-5" d="M179.3,35.24l-5.67,5.52c-1.52-1.21-3.05-2.1-4.57-2.68-1.52-.58-3.18-.87-4.97-.87-3.94,0-7.17,1.39-9.69,4.18-2.52,2.79-4.33,6.21-5.44,10.29-1.1,4.07-1.65,8.16-1.65,12.26,0,4.68.95,8.13,2.84,10.36,1.89,2.23,4.49,3.35,7.8,3.35,2.15,0,4.12-.39,5.91-1.18,1.79-.79,3.7-1.92,5.75-3.39l4.18,6.46c-2.21,1.89-4.74,3.44-7.61,4.65-2.86,1.21-6.03,1.81-9.5,1.81-6.15,0-11.03-1.94-14.66-5.83-3.63-3.89-5.44-9.41-5.44-16.55,0-5.36.95-10.68,2.84-15.96,1.89-5.28,4.89-9.68,8.99-13.2,4.1-3.52,9.22-5.28,15.37-5.28s11.48,2.02,15.53,6.07Z"/>
      <path class="cls-5" d="M181.46,81.35c-2.92-3.1-4.37-7.41-4.37-12.93,0-4.1.75-8.17,2.25-12.22,1.5-4.05,3.93-7.43,7.29-10.17,3.36-2.73,7.67-4.1,12.93-4.1s9.5,1.56,12.41,4.69c2.92,3.13,4.37,7.4,4.37,12.81,0,4.1-.74,8.17-2.21,12.22-1.47,4.05-3.89,7.45-7.25,10.21-3.36,2.76-7.7,4.14-13,4.14s-9.5-1.55-12.41-4.65ZM201.36,75.08c1.73-2.18,2.94-4.79,3.63-7.84.68-3.05,1.02-6.02,1.02-8.91,0-5.83-2.34-8.75-7.01-8.75-2.89,0-5.2,1.06-6.94,3.19-1.73,2.13-2.96,4.69-3.67,7.68-.71,2.99-1.06,5.91-1.06,8.75,0,6.1,2.36,9.14,7.09,9.14,2.89,0,5.2-1.09,6.94-3.27Z"/>
      <path class="cls-5" d="M256.65,44.66c1.71,1.81,2.56,4.32,2.56,7.53,0,.84-.08,1.79-.24,2.84l-4.18,29.79h-9.93l4.02-28.3c.1-.95.16-1.6.16-1.97,0-1.58-.32-2.69-.95-3.35-.63-.66-1.5-.99-2.6-.99-3.57,0-7.23,3.57-10.96,10.72l-3.39,23.88h-9.93l5.83-41.69h8.59l-.39,7.72c4.1-5.94,8.88-8.91,14.34-8.91,3,0,5.35.91,7.05,2.72Z"/>
      <path class="cls-5" d="M277.58,72.29c-.11,1.05-.16,1.71-.16,1.97,0,1.26.26,2.17.79,2.72.52.55,1.37.83,2.52.83,1.47,0,3.26-.5,5.36-1.5l2.84,6.7c-3.21,2-6.7,3-10.48,3-3.52,0-6.24-.93-8.16-2.8-1.92-1.86-2.88-4.5-2.88-7.92,0-.95.08-1.97.24-3.07l3.07-21.83h-6.46l1.02-7.25h6.86l.37-1.35c1.35-4.9,5.54-8.48,10.58-9.05h0s-1.42,10.4-1.42,10.4h9.62l-2.13,7.25h-8.51l-3.07,21.91Z"/>
      <path class="cls-5" d="M308.55,43.12l-5.83,41.69h-9.93l5.83-41.69h9.93ZM301.07,32.68c-1.05-1.02-1.58-2.33-1.58-3.9,0-1.94.66-3.56,1.97-4.85,1.31-1.29,2.94-1.93,4.89-1.93,1.68,0,3.05.51,4.1,1.54,1.05,1.02,1.58,2.35,1.58,3.98,0,1.89-.66,3.48-1.97,4.77-1.31,1.29-2.94,1.93-4.89,1.93-1.68,0-3.05-.51-4.1-1.54Z"/>
      <path class="cls-5" d="M348.87,44.66c1.71,1.81,2.56,4.32,2.56,7.53,0,.84-.08,1.79-.24,2.84l-4.18,29.79h-9.93l4.02-28.3c.1-.95.16-1.6.16-1.97,0-1.58-.32-2.69-.95-3.35-.63-.66-1.5-.99-2.6-.99-3.57,0-7.23,3.57-10.96,10.72l-3.39,23.88h-9.93l5.83-41.69h8.59l-.39,7.72c4.1-5.94,8.88-8.91,14.34-8.91,2.99,0,5.35.91,7.05,2.72Z"/>
      <path class="cls-5" d="M387.06,64.64c-4.89,2.42-11.43,4.05-19.63,4.89.21,5.78,2.92,8.67,8.12,8.67,1.89,0,3.7-.3,5.44-.91.02,0,.03-.01.05-.02,3.42-1.2,7.21.05,9.11,3.14l.14.23c-5.04,3.57-10.32,5.36-15.84,5.36s-9.83-1.54-12.77-4.61c-2.94-3.07-4.41-7.32-4.41-12.73,0-4.2.78-8.34,2.33-12.41,1.55-4.07,4.02-7.47,7.41-10.21,3.39-2.73,7.71-4.1,12.97-4.1,3.05,0,5.66.5,7.84,1.5,2.18,1,3.82,2.34,4.93,4.02,1.1,1.68,1.65,3.52,1.65,5.52,0,5.36-2.44,9.25-7.33,11.66ZM380.2,59.71c2.63-1.55,3.94-3.67,3.94-6.34,0-1.1-.37-2.09-1.1-2.96-.74-.87-1.94-1.3-3.63-1.3-3.31,0-5.9,1.31-7.76,3.94-1.87,2.63-3.11,5.89-3.74,9.77,5.57-.52,9.67-1.56,12.3-3.11Z"/>
      <path class="cls-5" d="M432.89,44.66c1.71,1.81,2.56,4.32,2.56,7.53,0,.84-.08,1.79-.24,2.84l-4.18,29.79h-9.93l4.02-28.3c.1-.95.16-1.6.16-1.97,0-1.58-.32-2.69-.95-3.35-.63-.66-1.5-.99-2.6-.99-3.57,0-7.23,3.57-10.96,10.72l-3.39,23.88h-9.93l5.83-41.69h8.59l-.39,7.72c4.1-5.94,8.88-8.91,14.34-8.91,2.99,0,5.35.91,7.05,2.72Z"/>
      <path class="cls-5" d="M453.81,72.29c-.11,1.05-.16,1.71-.16,1.97,0,1.26.26,2.17.79,2.72.52.55,1.37.83,2.52.83,1.47,0,3.26-.5,5.36-1.5l2.84,6.7c-3.21,2-6.7,3-10.48,3-3.52,0-6.24-.93-8.16-2.8-1.92-1.86-2.88-4.5-2.88-7.92,0-.95.08-1.97.24-3.07l3.07-21.83h-6.46l1.02-7.25h6.86l.37-1.35c1.35-4.9,5.54-8.48,10.58-9.05h0s-1.42,10.4-1.42,10.4h9.62l-2.13,7.25h-8.51l-3.07,21.91Z"/>
      <path class="cls-5" d="M501.58,47.22l-4.57,5.6c-3.15-2.26-6.49-3.39-10.01-3.39-2.16,0-3.82.39-5.01,1.18-1.18.79-1.77,1.87-1.77,3.23,0,1.26.55,2.25,1.65,2.96s3.28,1.59,6.54,2.64c3.84,1.21,6.67,2.8,8.51,4.77,1.84,1.97,2.76,4.56,2.76,7.76,0,2.79-.75,5.24-2.25,7.37-1.5,2.13-3.61,3.77-6.35,4.93-2.73,1.16-5.91,1.73-9.54,1.73s-6.61-.61-9.42-1.81c-2.81-1.21-5.14-2.76-6.98-4.65l5.2-5.44c3.36,2.89,7.17,4.33,11.43,4.33,2.63,0,4.58-.54,5.87-1.62,1.29-1.08,1.93-2.33,1.93-3.74,0-1.1-.25-2.01-.75-2.72-.5-.71-1.33-1.34-2.48-1.89-1.16-.55-2.92-1.22-5.28-2.01-3.84-1.21-6.61-2.75-8.32-4.61-1.71-1.86-2.56-4.27-2.56-7.21,0-2.21.64-4.28,1.93-6.23,1.29-1.94,3.19-3.51,5.71-4.69,2.52-1.18,5.57-1.77,9.14-1.77,5.67,0,10.53,1.76,14.58,5.28Z"/>
    </g>
    <g>
      <path class="cls-5" d="M88.68,24.3c-7.88-8.29-17.36-12.3-29.7-12.3-23.2,0-42,18.8-42,42s17.94,41.11,40.38,41.96c-16.64-.84-29.88-14.61-29.88-31.46s14.1-31.5,31.5-31.5l1.08.03c5.37.27,10.21,2.56,13.77,6.12l14.85-14.85Z"/>
      <path class="cls-4" d="M85.88,80.89h0c-5.82-5.82-14.22-8.22-22.26-6.41-1.91.43-3.93.6-6,.47-10.33-.65-18.77-8.95-19.57-19.27-.94-11.99,8.21-22.07,19.85-22.66-16.9.57-30.42,14.44-30.42,31.47s13.24,30.62,29.88,31.46c.54.02,1.08.04,1.62.04s1.08-.02,1.62-.04c10.95-.42,20.82-5.03,28.07-12.27l-2.79-2.79Z"/>
      <path class="cls-5" d="M98.69,40.26h0c-1.03-1.03-2.69-1.03-3.71,0l-4.84,4.84-16.22-.34c-.65-.14-1.32.06-1.79.53l-2.04,2.04,13.96,3.86-13.95,13.94c-7.18,7.18-18.81,7.17-25.99,0-6.95-6.95-7.17-18.09-.65-25.3-7.54,8.24-7.33,21.04.65,29.01,8.2,8.2,21.5,8.2,29.7,0l13.95-13.94h0s3.85,13.96,3.85,13.96l2.04-2.04c.47-.47.67-1.15.53-1.79l-.33-16.22,4.84-4.84c1.03-1.03,1.03-2.69,0-3.71Z"/>
    </g>
    <line class="cls-2" x1="118.02" y1="22" x2="118.02" y2="86"/>
    <line class="cls-3" x1="119.02" y1="22" x2="119.02" y2="86"/>
  </g>
</svg>